<?xml version="1.0" encoding="utf-8"?>
<!-- Generator: Adobe Illustrator 27.8.0, SVG Export Plug-In . SVG Version: 6.00 Build 0)  -->
<svg version="1.1" id="Layer_1" xmlns="http://www.w3.org/2000/svg" xmlns:xlink="http://www.w3.org/1999/xlink" x="0px" y="0px"
	 viewBox="0 0 1920 1024" style="enable-background:new 0 0 1920 1024;" xml:space="preserve">
<style type="text/css">
	.st0{fill:#8366F7;}
	.st1{fill:#FFFFFF;}
</style>
<g>
	<path class="st0" d="M1236.28,828.45H1071.1l30.56-166.85h165.18L1236.28,828.45z"/>
	<path class="st0" d="M1282.38,578.86H1117.2L1223.88,0h165.18L1282.38,578.86z"/>
	<path class="st1" d="M817.2,316.24c42.48,0,83,11.13,121.56,33.38c38.55,22.25,69.61,53.34,93.13,93.25
		c23.52,39.93,35.3,85.08,35.3,135.46c0,50.38-11.76,94.56-35.3,134.49c-23.52,39.91-54.58,71.01-93.13,93.25
		c-38.55,22.25-79.07,33.38-121.56,33.38c-33.98,0-63.73-4.58-89.21-13.74c-24.84-9.81-47.06-24.55-66.67-44.18v242.46H530.95
		V328.02h125.49v51.04c20.27-21.6,43.46-37.3,69.61-47.12c26.15-10.47,56.53-15.71,91.16-15.71V316.24z M796.62,718.71
		c39.87,0,73.19-13.41,100-40.24c26.79-26.83,40.19-60.2,40.19-100.13c0-39.93-13.4-74.28-40.19-101.11
		c-26.79-26.83-60.13-40.24-100-40.24c-39.87,0-73.19,13.41-100,40.24c-26.79,26.83-40.19,60.54-40.19,101.11
		c0,40.57,13.4,73.29,40.19,100.13C723.41,705.29,756.75,718.71,796.62,718.71z"/>
</g>
</svg>
