<svg xmlns="http://www.w3.org/2000/svg" width="64" height="64" fill="none"><path stroke="#FAFAFA" stroke-linecap="round" stroke-linejoin="round" stroke-width="1.5" d="m12.36 38.44 2.77-5.874a.951.951 0 0 1 1.74 0l2.77 5.874 6.196.948c.795.122 1.112 1.145.537 1.732l-4.483 4.57 1.058 6.455c.136.829-.696 1.46-1.407 1.07L16 50.164l-5.54 3.05c-.712.39-1.544-.241-1.408-1.07l1.058-6.456-4.482-4.57c-.576-.587-.26-1.61.536-1.73l6.196-.949ZM44.36 38.44l2.77-5.874a.95.95 0 0 1 1.74 0l2.77 5.874 6.196.948c.795.122 1.112 1.145.537 1.732l-4.483 4.57 1.058 6.455c.136.829-.696 1.46-1.407 1.07L48 50.164l-5.54 3.05c-.712.39-1.544-.241-1.408-1.07l1.058-6.456-4.483-4.57c-.575-.587-.258-1.61.537-1.73l6.196-.949ZM28.36 14.44l2.77-5.874a.95.95 0 0 1 1.74 0l2.77 5.874 6.196.948c.795.122 1.112 1.145.537 1.731l-4.483 4.57 1.058 6.456c.136.829-.696 1.46-1.407 1.07L32 26.164l-5.54 3.05c-.712.39-1.544-.241-1.408-1.07l1.058-6.456-4.482-4.57c-.576-.586-.26-1.61.536-1.73l6.196-.949Z"/></svg>