<svg xmlns="http://www.w3.org/2000/svg" width="64" height="64" fill="none"><path stroke="#FAFAFA" stroke-width="1.5" d="M45.333 58.667H18.667a5.333 5.333 0 0 1-5.334-5.334V29.818a1.6 1.6 0 0 0-.268-.888l-4.796-7.194A1.6 1.6 0 0 1 8 20.85V6.933a1.6 1.6 0 0 1 1.6-1.6h4.8a1.6 1.6 0 0 1 1.6 1.6v4.8a1.6 1.6 0 0 0 1.6 1.6h7.467a1.6 1.6 0 0 0 1.6-1.6v-4.8a1.6 1.6 0 0 1 1.6-1.6h7.466a1.6 1.6 0 0 1 1.6 1.6v4.8a1.6 1.6 0 0 0 1.6 1.6H46.4a1.6 1.6 0 0 0 1.6-1.6v-4.8a1.6 1.6 0 0 1 1.6-1.6h4.8a1.6 1.6 0 0 1 1.6 1.6V20.85a1.6 1.6 0 0 1-.269.887l-4.796 7.194a1.6 1.6 0 0 0-.268.888v23.515a5.333 5.333 0 0 1-5.334 5.334Z"/></svg>